<?xml version="1.0" standalone="no"?><!DOCTYPE svg PUBLIC "-//W3C//DTD SVG 1.1//EN" "http://www.w3.org/Graphics/SVG/1.1/DTD/svg11.dtd"><svg t="1605239196548" class="icon" viewBox="0 0 1024 1024" version="1.1" xmlns="http://www.w3.org/2000/svg" p-id="3360" width="128" height="128" xmlns:xlink="http://www.w3.org/1999/xlink"><defs><style type="text/css"></style></defs><path d="M255.7 930.3c-9 0-17.9-2.8-25.5-8.3-13.5-9.8-20.1-26.1-17.3-42.5l45.7-266.3L65.1 424.7C53.2 413 49 396 54.1 380.2s18.6-27.2 35.1-29.6l267.4-38.8L476.1 69.5c7.4-14.9 22.3-24.2 38.9-24.2 16.7 0 31.6 9.3 38.9 24.2l119.6 242.3 267.4 38.8c16.5 2.4 29.9 13.7 35.1 29.6 5.1 15.8 0.9 32.9-11 44.5L771.5 613.2l45.7 266.3c2.8 16.4-3.8 32.7-17.3 42.5s-31 11.1-45.7 3.3L515 799.6 275.9 925.3c-6.4 3.4-13.3 5-20.2 5zM515 755.5c6.9 0 13.9 1.7 20.2 5l238.4 125.3-45.5-265.4c-2.4-14.1 2.3-28.5 12.5-38.4l192.8-188-266.5-38.7c-14.1-2.1-26.4-10.9-32.7-23.8L515 90 395.9 331.5c-6.3 12.8-18.5 21.7-32.7 23.8L96.7 394l192.8 188c10.2 10 14.9 24.3 12.5 38.4l-45.5 265.4 238.4-125.3c6.3-3.3 13.2-5 20.1-5z m0.3 43.9z" p-id="3361" fill="#8a8a8a"></path></svg>